<?xml version="1.0" standalone="no"?>
 <!DOCTYPE svg PUBLIC "-//W3C//DTD SVG 1.1//EN" 
 "http://www.w3.org/Graphics/SVG/1.1/DTD/svg11.dtd"> 
<svg
  xmlns:svg="http://www.w3.org/2000/svg"
  xmlns="http://www.w3.org/2000/svg"
  xmlns:xlink="http://www.w3.org/1999/xlink"
  version="1.1"
  width="1.579880cm" height="20.622260cm" viewBox="0 0 6220 81190">
<title>SVG Picture created as conway-brd.svg date 2023/08/17 15:11:41 </title>
  <desc>Picture generated by PCBNEW </desc>
<g style="fill:#000000; fill-opacity:1;stroke:#000000; stroke-opacity:1;
stroke-linecap:round; stroke-linejoin:round;"
 transform="translate(0 0) scale(1 1)">
</g>
<g style="fill:#000000; fill-opacity:0.0; 
stroke:#000000; stroke-width:-0.000393701; stroke-opacity:1; 
stroke-linecap:round; stroke-linejoin:round;">
<g >
</g>
<g style="fill:#000000; fill-opacity:0.0; 
stroke:#000000; stroke-width:0; stroke-opacity:1; 
stroke-linecap:round; stroke-linejoin:round;">
</g>
<g style="fill:#000000; fill-opacity:1.0; 
stroke:#000000; stroke-width:0; stroke-opacity:1; 
stroke-linecap:round; stroke-linejoin:round;">
<path style="fill:#000000; fill-opacity:1.0; 
stroke:#000000; stroke-width:0; stroke-opacity:1; 
stroke-linecap:round; stroke-linejoin:round;fill-rule:evenodd;"
d="M 4621.06,78493.2
5290.35,78493.2
5290.35,79674.3
4621.06,79674.3
Z" /> 
</g>
<g >
</g>
<g style="fill:#000000; fill-opacity:1.0; 
stroke:#000000; stroke-width:0; stroke-opacity:1; 
stroke-linecap:round; stroke-linejoin:round;">
<path style="fill:#000000; fill-opacity:1.0; 
stroke:#000000; stroke-width:0; stroke-opacity:1; 
stroke-linecap:round; stroke-linejoin:round;fill-rule:evenodd;"
d="M 2337.6,29644.7
2337.6,29940
1747.05,29940
1747.05,29644.7
Z" /> 
<path style="fill:#000000; fill-opacity:1.0; 
stroke:#000000; stroke-width:0; stroke-opacity:1; 
stroke-linecap:round; stroke-linejoin:round;fill-rule:evenodd;"
d="M 2337.6,29959.7
2337.6,30255
1747.05,30255
1747.05,29959.7
Z" /> 
<path style="fill:#000000; fill-opacity:1.0; 
stroke:#000000; stroke-width:0; stroke-opacity:1; 
stroke-linecap:round; stroke-linejoin:round;fill-rule:evenodd;"
d="M 2337.6,30589.6
2337.6,30884.9
1747.05,30884.9
1747.05,30589.6
Z" /> 
<path style="fill:#000000; fill-opacity:1.0; 
stroke:#000000; stroke-width:0; stroke-opacity:1; 
stroke-linecap:round; stroke-linejoin:round;fill-rule:evenodd;"
d="M 2337.6,30274.7
2337.6,30569.9
1747.05,30569.9
1747.05,30274.7
Z" /> 
<path style="fill:#000000; fill-opacity:1.0; 
stroke:#000000; stroke-width:0; stroke-opacity:1; 
stroke-linecap:round; stroke-linejoin:round;fill-rule:evenodd;"
d="M 3046.26,29644.7
3046.26,29940
2455.71,29940
2455.71,29644.7
Z" /> 
<path style="fill:#000000; fill-opacity:1.0; 
stroke:#000000; stroke-width:0; stroke-opacity:1; 
stroke-linecap:round; stroke-linejoin:round;fill-rule:evenodd;"
d="M 3046.26,30274.7
3046.26,30569.9
2455.71,30569.9
2455.71,30274.7
Z" /> 
<path style="fill:#000000; fill-opacity:1.0; 
stroke:#000000; stroke-width:0; stroke-opacity:1; 
stroke-linecap:round; stroke-linejoin:round;fill-rule:evenodd;"
d="M 3046.26,29959.7
3046.26,30255
2455.71,30255
2455.71,29959.7
Z" /> 
<path style="fill:#000000; fill-opacity:1.0; 
stroke:#000000; stroke-width:0; stroke-opacity:1; 
stroke-linecap:round; stroke-linejoin:round;fill-rule:evenodd;"
d="M 3046.26,30589.6
3046.26,30884.9
2455.71,30884.9
2455.71,30589.6
Z" /> 
</g>
<g >
</g>
<g style="fill:#000000; fill-opacity:1.0; 
stroke:#000000; stroke-width:0; stroke-opacity:1; 
stroke-linecap:round; stroke-linejoin:round;">
<path style="fill:#000000; fill-opacity:1.0; 
stroke:#000000; stroke-width:0; stroke-opacity:1; 
stroke-linecap:round; stroke-linejoin:round;fill-rule:evenodd;"
d="M 880.906,78493.2
1550.2,78493.2
1550.2,79674.3
880.906,79674.3
Z" /> 
</g>
<g >
</g>
<g style="fill:#000000; fill-opacity:1.0; 
stroke:#000000; stroke-width:0; stroke-opacity:1; 
stroke-linecap:round; stroke-linejoin:round;">
</g>
<g style="fill:#000000; fill-opacity:1.0; 
stroke:#000000; stroke-width:787.402; stroke-opacity:1; 
stroke-linecap:round; stroke-linejoin:round;">
</g>
<g style="fill:#000000; fill-opacity:0.0; 
stroke:#000000; stroke-width:787.402; stroke-opacity:1; 
stroke-linecap:round; stroke-linejoin:round;">
<path d="M3479 44993
L2691 44993
" />
</g>
<g style="fill:#000000; fill-opacity:0.0; 
stroke:#000000; stroke-width:0; stroke-opacity:1; 
stroke-linecap:round; stroke-linejoin:round;">
</g>
<g style="fill:#000000; fill-opacity:1.0; 
stroke:#000000; stroke-width:0; stroke-opacity:1; 
stroke-linecap:round; stroke-linejoin:round;">
<path style="fill:#000000; fill-opacity:1.0; 
stroke:#000000; stroke-width:0; stroke-opacity:1; 
stroke-linecap:round; stroke-linejoin:round;fill-rule:evenodd;"
d="M 3873.03,45835.7
3873.03,46623.1
2298.23,46623.1
2298.23,45835.7
Z" /> 
</g>
<g >
</g>
<g style="fill:#000000; fill-opacity:1.0; 
stroke:#000000; stroke-width:0; stroke-opacity:1; 
stroke-linecap:round; stroke-linejoin:round;">
</g>
<g style="fill:#000000; fill-opacity:1.0; 
stroke:#000000; stroke-width:787.402; stroke-opacity:1; 
stroke-linecap:round; stroke-linejoin:round;">
</g>
<g style="fill:#000000; fill-opacity:0.0; 
stroke:#000000; stroke-width:787.402; stroke-opacity:1; 
stroke-linecap:round; stroke-linejoin:round;">
<path d="M3479 34953
L2691 34953
" />
</g>
<g style="fill:#000000; fill-opacity:0.0; 
stroke:#000000; stroke-width:0; stroke-opacity:1; 
stroke-linecap:round; stroke-linejoin:round;">
</g>
<g style="fill:#000000; fill-opacity:1.0; 
stroke:#000000; stroke-width:0; stroke-opacity:1; 
stroke-linecap:round; stroke-linejoin:round;">
<path style="fill:#000000; fill-opacity:1.0; 
stroke:#000000; stroke-width:0; stroke-opacity:1; 
stroke-linecap:round; stroke-linejoin:round;fill-rule:evenodd;"
d="M 3873.03,35796.3
3873.03,36583.7
2298.23,36583.7
2298.23,35796.3
Z" /> 
</g>
<g >
</g>
<g style="fill:#000000; fill-opacity:1.0; 
stroke:#000000; stroke-width:0; stroke-opacity:1; 
stroke-linecap:round; stroke-linejoin:round;">
</g>
<g style="fill:#000000; fill-opacity:1.0; 
stroke:#000000; stroke-width:787.402; stroke-opacity:1; 
stroke-linecap:round; stroke-linejoin:round;">
</g>
<g style="fill:#000000; fill-opacity:0.0; 
stroke:#000000; stroke-width:787.402; stroke-opacity:1; 
stroke-linecap:round; stroke-linejoin:round;">
<path d="M3499 24914
L2711 24914
" />
</g>
<g style="fill:#000000; fill-opacity:0.0; 
stroke:#000000; stroke-width:0; stroke-opacity:1; 
stroke-linecap:round; stroke-linejoin:round;">
</g>
<g style="fill:#000000; fill-opacity:1.0; 
stroke:#000000; stroke-width:0; stroke-opacity:1; 
stroke-linecap:round; stroke-linejoin:round;">
<path style="fill:#000000; fill-opacity:1.0; 
stroke:#000000; stroke-width:0; stroke-opacity:1; 
stroke-linecap:round; stroke-linejoin:round;fill-rule:evenodd;"
d="M 3892.72,25756.9
3892.72,26544.3
2317.91,26544.3
2317.91,25756.9
Z" /> 
</g>
<g >
</g>
<g style="fill:#000000; fill-opacity:1.0; 
stroke:#000000; stroke-width:0; stroke-opacity:1; 
stroke-linecap:round; stroke-linejoin:round;">
</g>
<g style="fill:#000000; fill-opacity:1.0; 
stroke:#000000; stroke-width:787.402; stroke-opacity:1; 
stroke-linecap:round; stroke-linejoin:round;">
</g>
<g style="fill:#000000; fill-opacity:0.0; 
stroke:#000000; stroke-width:787.402; stroke-opacity:1; 
stroke-linecap:round; stroke-linejoin:round;">
<path d="M3479 4835
L2691 4835
" />
</g>
<g style="fill:#000000; fill-opacity:0.0; 
stroke:#000000; stroke-width:0; stroke-opacity:1; 
stroke-linecap:round; stroke-linejoin:round;">
</g>
<g style="fill:#000000; fill-opacity:1.0; 
stroke:#000000; stroke-width:0; stroke-opacity:1; 
stroke-linecap:round; stroke-linejoin:round;">
<path style="fill:#000000; fill-opacity:1.0; 
stroke:#000000; stroke-width:0; stroke-opacity:1; 
stroke-linecap:round; stroke-linejoin:round;fill-rule:evenodd;"
d="M 3873.03,5678.2
3873.03,6465.6
2298.23,6465.6
2298.23,5678.2
Z" /> 
</g>
<g >
</g>
<g style="fill:#000000; fill-opacity:1.0; 
stroke:#000000; stroke-width:0; stroke-opacity:1; 
stroke-linecap:round; stroke-linejoin:round;">
</g>
<g style="fill:#000000; fill-opacity:1.0; 
stroke:#000000; stroke-width:787.402; stroke-opacity:1; 
stroke-linecap:round; stroke-linejoin:round;">
</g>
<g style="fill:#000000; fill-opacity:0.0; 
stroke:#000000; stroke-width:787.402; stroke-opacity:1; 
stroke-linecap:round; stroke-linejoin:round;">
<path d="M3479 55032
L2691 55032
" />
</g>
<g style="fill:#000000; fill-opacity:0.0; 
stroke:#000000; stroke-width:0; stroke-opacity:1; 
stroke-linecap:round; stroke-linejoin:round;">
</g>
<g style="fill:#000000; fill-opacity:1.0; 
stroke:#000000; stroke-width:0; stroke-opacity:1; 
stroke-linecap:round; stroke-linejoin:round;">
<path style="fill:#000000; fill-opacity:1.0; 
stroke:#000000; stroke-width:0; stroke-opacity:1; 
stroke-linecap:round; stroke-linejoin:round;fill-rule:evenodd;"
d="M 3873.03,55875
3873.03,56662.4
2298.23,56662.4
2298.23,55875
Z" /> 
</g>
<g >
</g>
<g style="fill:#000000; fill-opacity:1.0; 
stroke:#000000; stroke-width:0; stroke-opacity:1; 
stroke-linecap:round; stroke-linejoin:round;">
<path style="fill:#000000; fill-opacity:1.0; 
stroke:#000000; stroke-width:0; stroke-opacity:1; 
stroke-linecap:round; stroke-linejoin:round;fill-rule:evenodd;"
d="M 4562.01,51662.4
4562.01,52843.6
3380.91,52843.6
3380.91,51662.4
Z" /> 
</g>
<g style="fill:#000000; fill-opacity:1.0; 
stroke:#000000; stroke-width:984.252; stroke-opacity:1; 
stroke-linecap:round; stroke-linejoin:round;">
</g>
<g style="fill:#000000; fill-opacity:0.0; 
stroke:#000000; stroke-width:984.252; stroke-opacity:1; 
stroke-linecap:round; stroke-linejoin:round;">
<path d="M4069 51064
L3873 51064
" />
<path d="M4069 50064
L3873 50064
" />
<path d="M4069 49064
L3873 49064
" />
</g>
<g >
</g>
<g style="fill:#000000; fill-opacity:0.0; 
stroke:#000000; stroke-width:984.252; stroke-opacity:1; 
stroke-linecap:round; stroke-linejoin:round;">
</g>
<g style="fill:#000000; fill-opacity:0.0; 
stroke:#000000; stroke-width:787.402; stroke-opacity:1; 
stroke-linecap:round; stroke-linejoin:round;">
<path d="M3479 75111
L2691 75111
" />
</g>
<g style="fill:#000000; fill-opacity:0.0; 
stroke:#000000; stroke-width:0; stroke-opacity:1; 
stroke-linecap:round; stroke-linejoin:round;">
</g>
<g style="fill:#000000; fill-opacity:1.0; 
stroke:#000000; stroke-width:0; stroke-opacity:1; 
stroke-linecap:round; stroke-linejoin:round;">
<path style="fill:#000000; fill-opacity:1.0; 
stroke:#000000; stroke-width:0; stroke-opacity:1; 
stroke-linecap:round; stroke-linejoin:round;fill-rule:evenodd;"
d="M 3873.03,75953.8
3873.03,76741.2
2298.23,76741.2
2298.23,75953.8
Z" /> 
</g>
<g >
</g>
<g style="fill:#000000; fill-opacity:1.0; 
stroke:#000000; stroke-width:0; stroke-opacity:1; 
stroke-linecap:round; stroke-linejoin:round;">
</g>
<g style="fill:#000000; fill-opacity:1.0; 
stroke:#000000; stroke-width:787.402; stroke-opacity:1; 
stroke-linecap:round; stroke-linejoin:round;">
</g>
<g style="fill:#000000; fill-opacity:0.0; 
stroke:#000000; stroke-width:787.402; stroke-opacity:1; 
stroke-linecap:round; stroke-linejoin:round;">
<path d="M3479 65071
L2691 65071
" />
</g>
<g style="fill:#000000; fill-opacity:0.0; 
stroke:#000000; stroke-width:0; stroke-opacity:1; 
stroke-linecap:round; stroke-linejoin:round;">
</g>
<g style="fill:#000000; fill-opacity:1.0; 
stroke:#000000; stroke-width:0; stroke-opacity:1; 
stroke-linecap:round; stroke-linejoin:round;">
<path style="fill:#000000; fill-opacity:1.0; 
stroke:#000000; stroke-width:0; stroke-opacity:1; 
stroke-linecap:round; stroke-linejoin:round;fill-rule:evenodd;"
d="M 3873.03,65914.4
3873.03,66701.8
2298.23,66701.8
2298.23,65914.4
Z" /> 
</g>
<g >
</g>
<g style="fill:#000000; fill-opacity:1.0; 
stroke:#000000; stroke-width:0; stroke-opacity:1; 
stroke-linecap:round; stroke-linejoin:round;">
<path style="fill:#000000; fill-opacity:1.0; 
stroke:#000000; stroke-width:0; stroke-opacity:1; 
stroke-linecap:round; stroke-linejoin:round;fill-rule:evenodd;"
d="M 2947.83,61199.8
2947.83,60904.6
3538.39,60904.6
3538.39,61199.8
Z" /> 
<path style="fill:#000000; fill-opacity:1.0; 
stroke:#000000; stroke-width:0; stroke-opacity:1; 
stroke-linecap:round; stroke-linejoin:round;fill-rule:evenodd;"
d="M 2947.83,60884.9
2947.83,60589.6
3538.39,60589.6
3538.39,60884.9
Z" /> 
<path style="fill:#000000; fill-opacity:1.0; 
stroke:#000000; stroke-width:0; stroke-opacity:1; 
stroke-linecap:round; stroke-linejoin:round;fill-rule:evenodd;"
d="M 2947.83,60255
2947.83,59959.7
3538.39,59959.7
3538.39,60255
Z" /> 
<path style="fill:#000000; fill-opacity:1.0; 
stroke:#000000; stroke-width:0; stroke-opacity:1; 
stroke-linecap:round; stroke-linejoin:round;fill-rule:evenodd;"
d="M 2947.83,60569.9
2947.83,60274.7
3538.39,60274.7
3538.39,60569.9
Z" /> 
<path style="fill:#000000; fill-opacity:1.0; 
stroke:#000000; stroke-width:0; stroke-opacity:1; 
stroke-linecap:round; stroke-linejoin:round;fill-rule:evenodd;"
d="M 2239.17,61199.8
2239.17,60904.6
2829.72,60904.6
2829.72,61199.8
Z" /> 
<path style="fill:#000000; fill-opacity:1.0; 
stroke:#000000; stroke-width:0; stroke-opacity:1; 
stroke-linecap:round; stroke-linejoin:round;fill-rule:evenodd;"
d="M 2239.17,60569.9
2239.17,60274.7
2829.72,60274.7
2829.72,60569.9
Z" /> 
<path style="fill:#000000; fill-opacity:1.0; 
stroke:#000000; stroke-width:0; stroke-opacity:1; 
stroke-linecap:round; stroke-linejoin:round;fill-rule:evenodd;"
d="M 2239.17,60884.9
2239.17,60589.6
2829.72,60589.6
2829.72,60884.9
Z" /> 
<path style="fill:#000000; fill-opacity:1.0; 
stroke:#000000; stroke-width:0; stroke-opacity:1; 
stroke-linecap:round; stroke-linejoin:round;fill-rule:evenodd;"
d="M 2239.17,60255
2239.17,59959.7
2829.72,59959.7
2829.72,60255
Z" /> 
</g>
<g >
</g>
<g style="fill:#000000; fill-opacity:1.0; 
stroke:#000000; stroke-width:0; stroke-opacity:1; 
stroke-linecap:round; stroke-linejoin:round;">
</g>
<g style="fill:#000000; fill-opacity:1.0; 
stroke:#000000; stroke-width:787.402; stroke-opacity:1; 
stroke-linecap:round; stroke-linejoin:round;">
</g>
<g style="fill:#000000; fill-opacity:0.0; 
stroke:#000000; stroke-width:787.402; stroke-opacity:1; 
stroke-linecap:round; stroke-linejoin:round;">
<path d="M3479 14875
L2691 14875
" />
</g>
<g style="fill:#000000; fill-opacity:0.0; 
stroke:#000000; stroke-width:0; stroke-opacity:1; 
stroke-linecap:round; stroke-linejoin:round;">
</g>
<g style="fill:#000000; fill-opacity:1.0; 
stroke:#000000; stroke-width:0; stroke-opacity:1; 
stroke-linecap:round; stroke-linejoin:round;">
<path style="fill:#000000; fill-opacity:1.0; 
stroke:#000000; stroke-width:0; stroke-opacity:1; 
stroke-linecap:round; stroke-linejoin:round;fill-rule:evenodd;"
d="M 3873.03,15717.6
3873.03,16505
2298.23,16505
2298.23,15717.6
Z" /> 
</g>
<g >
</g>
<g style="fill:#000000; fill-opacity:1.0; 
stroke:#000000; stroke-width:0; stroke-opacity:1; 
stroke-linecap:round; stroke-linejoin:round;">
<path style="fill:#000000; fill-opacity:1.0; 
stroke:#000000; stroke-width:0; stroke-opacity:1; 
stroke-linecap:round; stroke-linejoin:round;fill-rule:evenodd;"
d="M 880.906,1524.65
1550.2,1524.65
1550.2,2705.76
880.906,2705.76
Z" /> 
</g>
<g >
</g>
<g style="fill:#000000; fill-opacity:1.0; 
stroke:#000000; stroke-width:0; stroke-opacity:1; 
stroke-linecap:round; stroke-linejoin:round;">
<path style="fill:#000000; fill-opacity:1.0; 
stroke:#000000; stroke-width:0; stroke-opacity:1; 
stroke-linecap:round; stroke-linejoin:round;fill-rule:evenodd;"
d="M 2290.12,38613.8
2301.59,38615.5
2312.83,38618.3
2323.74,38622.2
2334.22,38627.2
2344.16,38633.1
2353.47,38640
2362.06,38647.8
2369.84,38656.4
2376.75,38665.7
2382.71,38675.7
2387.66,38686.1
2391.57,38697.1
2394.38,38708.3
2396.08,38719.8
2396.65,38731.3
2396.65,38967.6
2396.08,38979.1
2394.38,38990.6
2391.57,39001.9
2387.66,39012.8
2382.71,39023.2
2376.75,39033.2
2369.84,39042.5
2362.06,39051.1
2353.47,39058.9
2344.16,39065.8
2334.22,39071.7
2323.74,39076.7
2312.83,39080.6
2301.59,39083.4
2290.12,39085.1
2278.54,39085.7
1747.05,39085.7
1735.47,39085.1
1724.01,39083.4
1712.76,39080.6
1701.85,39076.7
1691.37,39071.7
1681.43,39065.8
1672.12,39058.9
1663.53,39051.1
1655.75,39042.5
1648.84,39033.2
1642.88,39023.2
1637.93,39012.8
1634.02,39001.9
1631.21,38990.6
1629.51,38979.1
1628.94,38967.6
1628.94,38731.3
1629.51,38719.8
1631.21,38708.3
1634.02,38697.1
1637.93,38686.1
1642.88,38675.7
1648.84,38665.7
1655.75,38656.4
1663.53,38647.8
1672.12,38640
1681.43,38633.1
1691.37,38627.2
1701.85,38622.2
1712.76,38618.3
1724.01,38615.5
1735.47,38613.8
1747.05,38613.2
2278.54,38613.2
Z" /> 
<path style="fill:#000000; fill-opacity:1.0; 
stroke:#000000; stroke-width:0; stroke-opacity:1; 
stroke-linecap:round; stroke-linejoin:round;fill-rule:evenodd;"
d="M 2290.12,39113.8
2301.59,39115.5
2312.83,39118.3
2323.74,39122.2
2334.22,39127.2
2344.16,39133.1
2353.47,39140
2362.06,39147.8
2369.84,39156.4
2376.75,39165.7
2382.71,39175.7
2387.66,39186.1
2391.57,39197.1
2394.38,39208.3
2396.08,39219.8
2396.65,39231.3
2396.65,39467.6
2396.08,39479.1
2394.38,39490.6
2391.57,39501.9
2387.66,39512.8
2382.71,39523.2
2376.75,39533.2
2369.84,39542.5
2362.06,39551.1
2353.47,39558.9
2344.16,39565.8
2334.22,39571.7
2323.74,39576.7
2312.83,39580.6
2301.59,39583.4
2290.12,39585.1
2278.54,39585.7
1747.05,39585.7
1735.47,39585.1
1724.01,39583.4
1712.76,39580.6
1701.85,39576.7
1691.37,39571.7
1681.43,39565.8
1672.12,39558.9
1663.53,39551.1
1655.75,39542.5
1648.84,39533.2
1642.88,39523.2
1637.93,39512.8
1634.02,39501.9
1631.21,39490.6
1629.51,39479.1
1628.94,39467.6
1628.94,39231.3
1629.51,39219.8
1631.21,39208.3
1634.02,39197.1
1637.93,39186.1
1642.88,39175.7
1648.84,39165.7
1655.75,39156.4
1663.53,39147.8
1672.12,39140
1681.43,39133.1
1691.37,39127.2
1701.85,39122.2
1712.76,39118.3
1724.01,39115.5
1735.47,39113.8
1747.05,39113.2
2278.54,39113.2
Z" /> 
<path style="fill:#000000; fill-opacity:1.0; 
stroke:#000000; stroke-width:0; stroke-opacity:1; 
stroke-linecap:round; stroke-linejoin:round;fill-rule:evenodd;"
d="M 2290.12,39613.8
2301.59,39615.5
2312.83,39618.3
2323.74,39622.2
2334.22,39627.2
2344.16,39633.1
2353.47,39640
2362.06,39647.8
2369.84,39656.4
2376.75,39665.7
2382.71,39675.7
2387.66,39686.1
2391.57,39697.1
2394.38,39708.3
2396.08,39719.8
2396.65,39731.3
2396.65,39967.6
2396.08,39979.1
2394.38,39990.6
2391.57,40001.9
2387.66,40012.8
2382.71,40023.2
2376.75,40033.2
2369.84,40042.5
2362.06,40051.1
2353.47,40058.9
2344.16,40065.8
2334.22,40071.7
2323.74,40076.7
2312.83,40080.6
2301.59,40083.4
2290.12,40085.1
2278.54,40085.7
1747.05,40085.7
1735.47,40085.1
1724.01,40083.4
1712.76,40080.6
1701.85,40076.7
1691.37,40071.7
1681.43,40065.8
1672.12,40058.9
1663.53,40051.1
1655.75,40042.5
1648.84,40033.2
1642.88,40023.2
1637.93,40012.8
1634.02,40001.9
1631.21,39990.6
1629.51,39979.1
1628.94,39967.6
1628.94,39731.3
1629.51,39719.8
1631.21,39708.3
1634.02,39697.1
1637.93,39686.1
1642.88,39675.7
1648.84,39665.7
1655.75,39656.4
1663.53,39647.8
1672.12,39640
1681.43,39633.1
1691.37,39627.2
1701.85,39622.2
1712.76,39618.3
1724.01,39615.5
1735.47,39613.8
1747.05,39613.2
2278.54,39613.2
Z" /> 
<path style="fill:#000000; fill-opacity:1.0; 
stroke:#000000; stroke-width:0; stroke-opacity:1; 
stroke-linecap:round; stroke-linejoin:round;fill-rule:evenodd;"
d="M 2290.12,40113.8
2301.59,40115.5
2312.83,40118.3
2323.74,40122.2
2334.22,40127.2
2344.16,40133.1
2353.47,40140
2362.06,40147.8
2369.84,40156.4
2376.75,40165.7
2382.71,40175.7
2387.66,40186.1
2391.57,40197.1
2394.38,40208.3
2396.08,40219.8
2396.65,40231.3
2396.65,40467.6
2396.08,40479.1
2394.38,40490.6
2391.57,40501.9
2387.66,40512.8
2382.71,40523.2
2376.75,40533.2
2369.84,40542.5
2362.06,40551.1
2353.47,40558.9
2344.16,40565.8
2334.22,40571.7
2323.74,40576.7
2312.83,40580.6
2301.59,40583.4
2290.12,40585.1
2278.54,40585.7
1747.05,40585.7
1735.47,40585.1
1724.01,40583.4
1712.76,40580.6
1701.85,40576.7
1691.37,40571.7
1681.43,40565.8
1672.12,40558.9
1663.53,40551.1
1655.75,40542.5
1648.84,40533.2
1642.88,40523.2
1637.93,40512.8
1634.02,40501.9
1631.21,40490.6
1629.51,40479.1
1628.94,40467.6
1628.94,40231.3
1629.51,40219.8
1631.21,40208.3
1634.02,40197.1
1637.93,40186.1
1642.88,40175.7
1648.84,40165.7
1655.75,40156.4
1663.53,40147.8
1672.12,40140
1681.43,40133.1
1691.37,40127.2
1701.85,40122.2
1712.76,40118.3
1724.01,40115.5
1735.47,40113.8
1747.05,40113.2
2278.54,40113.2
Z" /> 
<path style="fill:#000000; fill-opacity:1.0; 
stroke:#000000; stroke-width:0; stroke-opacity:1; 
stroke-linecap:round; stroke-linejoin:round;fill-rule:evenodd;"
d="M 2290.12,40613.8
2301.59,40615.5
2312.83,40618.3
2323.74,40622.2
2334.22,40627.2
2344.16,40633.1
2353.47,40640
2362.06,40647.8
2369.84,40656.4
2376.75,40665.7
2382.71,40675.7
2387.66,40686.1
2391.57,40697.1
2394.38,40708.3
2396.08,40719.8
2396.65,40731.3
2396.65,40967.6
2396.08,40979.1
2394.38,40990.6
2391.57,41001.9
2387.66,41012.8
2382.71,41023.2
2376.75,41033.2
2369.84,41042.5
2362.06,41051.1
2353.47,41058.9
2344.16,41065.8
2334.22,41071.7
2323.74,41076.7
2312.83,41080.6
2301.59,41083.4
2290.12,41085.1
2278.54,41085.7
1747.05,41085.7
1735.47,41085.1
1724.01,41083.4
1712.76,41080.6
1701.85,41076.7
1691.37,41071.7
1681.43,41065.8
1672.12,41058.9
1663.53,41051.1
1655.75,41042.5
1648.84,41033.2
1642.88,41023.2
1637.93,41012.8
1634.02,41001.9
1631.21,40990.6
1629.51,40979.1
1628.94,40967.6
1628.94,40731.3
1629.51,40719.8
1631.21,40708.3
1634.02,40697.1
1637.93,40686.1
1642.88,40675.7
1648.84,40665.7
1655.75,40656.4
1663.53,40647.8
1672.12,40640
1681.43,40633.1
1691.37,40627.2
1701.85,40622.2
1712.76,40618.3
1724.01,40615.5
1735.47,40613.8
1747.05,40613.2
2278.54,40613.2
Z" /> 
<path style="fill:#000000; fill-opacity:1.0; 
stroke:#000000; stroke-width:0; stroke-opacity:1; 
stroke-linecap:round; stroke-linejoin:round;fill-rule:evenodd;"
d="M 2290.12,41113.8
2301.59,41115.5
2312.83,41118.3
2323.74,41122.2
2334.22,41127.2
2344.16,41133.1
2353.47,41140
2362.06,41147.8
2369.84,41156.4
2376.75,41165.7
2382.71,41175.7
2387.66,41186.1
2391.57,41197.1
2394.38,41208.3
2396.08,41219.8
2396.65,41231.3
2396.65,41467.6
2396.08,41479.1
2394.38,41490.6
2391.57,41501.9
2387.66,41512.8
2382.71,41523.2
2376.75,41533.2
2369.84,41542.5
2362.06,41551.1
2353.47,41558.9
2344.16,41565.8
2334.22,41571.7
2323.74,41576.7
2312.83,41580.6
2301.59,41583.4
2290.12,41585.1
2278.54,41585.7
1747.05,41585.7
1735.47,41585.1
1724.01,41583.4
1712.76,41580.6
1701.85,41576.7
1691.37,41571.7
1681.43,41565.8
1672.12,41558.9
1663.53,41551.1
1655.75,41542.5
1648.84,41533.2
1642.88,41523.2
1637.93,41512.8
1634.02,41501.9
1631.21,41490.6
1629.51,41479.1
1628.94,41467.6
1628.94,41231.3
1629.51,41219.8
1631.21,41208.3
1634.02,41197.1
1637.93,41186.1
1642.88,41175.7
1648.84,41165.7
1655.75,41156.4
1663.53,41147.8
1672.12,41140
1681.43,41133.1
1691.37,41127.2
1701.85,41122.2
1712.76,41118.3
1724.01,41115.5
1735.47,41113.8
1747.05,41113.2
2278.54,41113.2
Z" /> 
<path style="fill:#000000; fill-opacity:1.0; 
stroke:#000000; stroke-width:0; stroke-opacity:1; 
stroke-linecap:round; stroke-linejoin:round;fill-rule:evenodd;"
d="M 2290.12,41613.8
2301.59,41615.5
2312.83,41618.3
2323.74,41622.2
2334.22,41627.2
2344.16,41633.1
2353.47,41640
2362.06,41647.8
2369.84,41656.4
2376.75,41665.7
2382.71,41675.7
2387.66,41686.1
2391.57,41697.1
2394.38,41708.3
2396.08,41719.8
2396.65,41731.3
2396.65,41967.6
2396.08,41979.1
2394.38,41990.6
2391.57,42001.9
2387.66,42012.8
2382.71,42023.2
2376.75,42033.2
2369.84,42042.5
2362.06,42051.1
2353.47,42058.9
2344.16,42065.8
2334.22,42071.7
2323.74,42076.7
2312.83,42080.6
2301.59,42083.4
2290.12,42085.1
2278.54,42085.7
1747.05,42085.7
1735.47,42085.1
1724.01,42083.4
1712.76,42080.6
1701.85,42076.7
1691.37,42071.7
1681.43,42065.8
1672.12,42058.9
1663.53,42051.1
1655.75,42042.5
1648.84,42033.2
1642.88,42023.2
1637.93,42012.8
1634.02,42001.9
1631.21,41990.6
1629.51,41979.1
1628.94,41967.6
1628.94,41731.3
1629.51,41719.8
1631.21,41708.3
1634.02,41697.1
1637.93,41686.1
1642.88,41675.7
1648.84,41665.7
1655.75,41656.4
1663.53,41647.8
1672.12,41640
1681.43,41633.1
1691.37,41627.2
1701.85,41622.2
1712.76,41618.3
1724.01,41615.5
1735.47,41613.8
1747.05,41613.2
2278.54,41613.2
Z" /> 
<path style="fill:#000000; fill-opacity:1.0; 
stroke:#000000; stroke-width:0; stroke-opacity:1; 
stroke-linecap:round; stroke-linejoin:round;fill-rule:evenodd;"
d="M 2290.12,42113.8
2301.59,42115.5
2312.83,42118.3
2323.74,42122.2
2334.22,42127.2
2344.16,42133.1
2353.47,42140
2362.06,42147.8
2369.84,42156.4
2376.75,42165.7
2382.71,42175.7
2387.66,42186.1
2391.57,42197.1
2394.38,42208.3
2396.08,42219.8
2396.65,42231.3
2396.65,42467.6
2396.08,42479.1
2394.38,42490.6
2391.57,42501.9
2387.66,42512.8
2382.71,42523.2
2376.75,42533.2
2369.84,42542.5
2362.06,42551.1
2353.47,42558.9
2344.16,42565.8
2334.22,42571.7
2323.74,42576.7
2312.83,42580.6
2301.59,42583.4
2290.12,42585.1
2278.54,42585.7
1747.05,42585.7
1735.47,42585.1
1724.01,42583.4
1712.76,42580.6
1701.85,42576.7
1691.37,42571.7
1681.43,42565.8
1672.12,42558.9
1663.53,42551.1
1655.75,42542.5
1648.84,42533.2
1642.88,42523.2
1637.93,42512.8
1634.02,42501.9
1631.21,42490.6
1629.51,42479.1
1628.94,42467.6
1628.94,42231.3
1629.51,42219.8
1631.21,42208.3
1634.02,42197.1
1637.93,42186.1
1642.88,42175.7
1648.84,42165.7
1655.75,42156.4
1663.53,42147.8
1672.12,42140
1681.43,42133.1
1691.37,42127.2
1701.85,42122.2
1712.76,42118.3
1724.01,42115.5
1735.47,42113.8
1747.05,42113.2
2278.54,42113.2
Z" /> 
<path style="fill:#000000; fill-opacity:1.0; 
stroke:#000000; stroke-width:0; stroke-opacity:1; 
stroke-linecap:round; stroke-linejoin:round;fill-rule:evenodd;"
d="M 4238.94,42113.8
4250.4,42115.5
4261.65,42118.3
4272.56,42122.2
4283.04,42127.2
4292.98,42133.1
4302.29,42140
4310.88,42147.8
4318.66,42156.4
4325.57,42165.7
4331.53,42175.7
4336.48,42186.1
4340.39,42197.1
4343.2,42208.3
4344.9,42219.8
4345.47,42231.3
4345.47,42467.6
4344.9,42479.1
4343.2,42490.6
4340.39,42501.9
4336.48,42512.8
4331.53,42523.2
4325.57,42533.2
4318.66,42542.5
4310.88,42551.1
4302.29,42558.9
4292.98,42565.8
4283.04,42571.7
4272.56,42576.7
4261.65,42580.6
4250.4,42583.4
4238.94,42585.1
4227.36,42585.7
3695.87,42585.7
3684.29,42585.1
3672.82,42583.4
3661.58,42580.6
3650.67,42576.7
3640.19,42571.7
3630.25,42565.8
3620.94,42558.9
3612.35,42551.1
3604.57,42542.5
3597.66,42533.2
3591.7,42523.2
3586.75,42512.8
3582.84,42501.9
3580.03,42490.6
3578.32,42479.1
3577.76,42467.6
3577.76,42231.3
3578.32,42219.8
3580.03,42208.3
3582.84,42197.1
3586.75,42186.1
3591.7,42175.7
3597.66,42165.7
3604.57,42156.4
3612.35,42147.8
3620.94,42140
3630.25,42133.1
3640.19,42127.2
3650.67,42122.2
3661.58,42118.3
3672.82,42115.5
3684.29,42113.8
3695.87,42113.2
4227.36,42113.2
Z" /> 
<path style="fill:#000000; fill-opacity:1.0; 
stroke:#000000; stroke-width:0; stroke-opacity:1; 
stroke-linecap:round; stroke-linejoin:round;fill-rule:evenodd;"
d="M 4238.94,41613.8
4250.4,41615.5
4261.65,41618.3
4272.56,41622.2
4283.04,41627.2
4292.98,41633.1
4302.29,41640
4310.88,41647.8
4318.66,41656.4
4325.57,41665.7
4331.53,41675.7
4336.48,41686.1
4340.39,41697.1
4343.2,41708.3
4344.9,41719.8
4345.47,41731.3
4345.47,41967.6
4344.9,41979.1
4343.2,41990.6
4340.39,42001.9
4336.48,42012.8
4331.53,42023.2
4325.57,42033.2
4318.66,42042.5
4310.88,42051.1
4302.29,42058.9
4292.98,42065.8
4283.04,42071.7
4272.56,42076.7
4261.65,42080.6
4250.4,42083.4
4238.94,42085.1
4227.36,42085.7
3695.87,42085.7
3684.29,42085.1
3672.82,42083.4
3661.58,42080.6
3650.67,42076.7
3640.19,42071.7
3630.25,42065.8
3620.94,42058.9
3612.35,42051.1
3604.57,42042.5
3597.66,42033.2
3591.7,42023.2
3586.75,42012.8
3582.84,42001.9
3580.03,41990.6
3578.32,41979.1
3577.76,41967.6
3577.76,41731.3
3578.32,41719.8
3580.03,41708.3
3582.84,41697.1
3586.75,41686.1
3591.7,41675.7
3597.66,41665.7
3604.57,41656.4
3612.35,41647.8
3620.94,41640
3630.25,41633.1
3640.19,41627.2
3650.67,41622.2
3661.58,41618.3
3672.82,41615.5
3684.29,41613.8
3695.87,41613.2
4227.36,41613.2
Z" /> 
<path style="fill:#000000; fill-opacity:1.0; 
stroke:#000000; stroke-width:0; stroke-opacity:1; 
stroke-linecap:round; stroke-linejoin:round;fill-rule:evenodd;"
d="M 4238.94,41113.8
4250.4,41115.5
4261.65,41118.3
4272.56,41122.2
4283.04,41127.2
4292.98,41133.1
4302.29,41140
4310.88,41147.8
4318.66,41156.4
4325.57,41165.7
4331.53,41175.7
4336.48,41186.1
4340.39,41197.1
4343.2,41208.3
4344.9,41219.8
4345.47,41231.3
4345.47,41467.6
4344.9,41479.1
4343.2,41490.6
4340.39,41501.9
4336.48,41512.8
4331.53,41523.2
4325.57,41533.2
4318.66,41542.5
4310.88,41551.1
4302.29,41558.9
4292.98,41565.8
4283.04,41571.7
4272.56,41576.7
4261.65,41580.6
4250.4,41583.4
4238.94,41585.1
4227.36,41585.7
3695.87,41585.7
3684.29,41585.1
3672.82,41583.4
3661.58,41580.6
3650.67,41576.7
3640.19,41571.7
3630.25,41565.8
3620.94,41558.9
3612.35,41551.1
3604.57,41542.5
3597.66,41533.2
3591.7,41523.2
3586.75,41512.8
3582.84,41501.9
3580.03,41490.6
3578.32,41479.1
3577.76,41467.6
3577.76,41231.3
3578.32,41219.8
3580.03,41208.3
3582.84,41197.1
3586.75,41186.1
3591.7,41175.7
3597.66,41165.7
3604.57,41156.4
3612.35,41147.8
3620.94,41140
3630.25,41133.1
3640.19,41127.2
3650.67,41122.2
3661.58,41118.3
3672.82,41115.5
3684.29,41113.8
3695.87,41113.2
4227.36,41113.2
Z" /> 
<path style="fill:#000000; fill-opacity:1.0; 
stroke:#000000; stroke-width:0; stroke-opacity:1; 
stroke-linecap:round; stroke-linejoin:round;fill-rule:evenodd;"
d="M 4238.94,40613.8
4250.4,40615.5
4261.65,40618.3
4272.56,40622.2
4283.04,40627.2
4292.98,40633.1
4302.29,40640
4310.88,40647.8
4318.66,40656.4
4325.57,40665.7
4331.53,40675.7
4336.48,40686.1
4340.39,40697.1
4343.2,40708.3
4344.9,40719.8
4345.47,40731.3
4345.47,40967.6
4344.9,40979.1
4343.2,40990.6
4340.39,41001.9
4336.48,41012.8
4331.53,41023.2
4325.57,41033.2
4318.66,41042.5
4310.88,41051.1
4302.29,41058.9
4292.98,41065.8
4283.04,41071.7
4272.56,41076.7
4261.65,41080.6
4250.4,41083.4
4238.94,41085.1
4227.36,41085.7
3695.87,41085.7
3684.29,41085.1
3672.82,41083.4
3661.58,41080.6
3650.67,41076.7
3640.19,41071.7
3630.25,41065.8
3620.94,41058.9
3612.35,41051.1
3604.57,41042.5
3597.66,41033.2
3591.7,41023.2
3586.75,41012.8
3582.84,41001.9
3580.03,40990.6
3578.32,40979.1
3577.76,40967.6
3577.76,40731.3
3578.32,40719.8
3580.03,40708.3
3582.84,40697.1
3586.75,40686.1
3591.7,40675.7
3597.66,40665.7
3604.57,40656.4
3612.35,40647.8
3620.94,40640
3630.25,40633.1
3640.19,40627.2
3650.67,40622.2
3661.58,40618.3
3672.82,40615.5
3684.29,40613.8
3695.87,40613.2
4227.36,40613.2
Z" /> 
<path style="fill:#000000; fill-opacity:1.0; 
stroke:#000000; stroke-width:0; stroke-opacity:1; 
stroke-linecap:round; stroke-linejoin:round;fill-rule:evenodd;"
d="M 4238.94,40113.8
4250.4,40115.5
4261.65,40118.3
4272.56,40122.2
4283.04,40127.2
4292.98,40133.1
4302.29,40140
4310.88,40147.8
4318.66,40156.4
4325.57,40165.7
4331.53,40175.7
4336.48,40186.1
4340.39,40197.1
4343.2,40208.3
4344.9,40219.8
4345.47,40231.3
4345.47,40467.6
4344.9,40479.1
4343.2,40490.6
4340.39,40501.9
4336.48,40512.8
4331.53,40523.2
4325.57,40533.2
4318.66,40542.5
4310.88,40551.1
4302.29,40558.9
4292.98,40565.8
4283.04,40571.7
4272.56,40576.7
4261.65,40580.6
4250.4,40583.4
4238.94,40585.1
4227.36,40585.7
3695.87,40585.7
3684.29,40585.1
3672.82,40583.4
3661.58,40580.6
3650.67,40576.7
3640.19,40571.7
3630.25,40565.8
3620.94,40558.9
3612.35,40551.1
3604.57,40542.5
3597.66,40533.2
3591.7,40523.2
3586.75,40512.8
3582.84,40501.9
3580.03,40490.6
3578.32,40479.1
3577.76,40467.6
3577.76,40231.3
3578.32,40219.8
3580.03,40208.3
3582.84,40197.1
3586.75,40186.1
3591.7,40175.7
3597.66,40165.7
3604.57,40156.4
3612.35,40147.8
3620.94,40140
3630.25,40133.1
3640.19,40127.2
3650.67,40122.2
3661.58,40118.3
3672.82,40115.5
3684.29,40113.8
3695.87,40113.2
4227.36,40113.2
Z" /> 
<path style="fill:#000000; fill-opacity:1.0; 
stroke:#000000; stroke-width:0; stroke-opacity:1; 
stroke-linecap:round; stroke-linejoin:round;fill-rule:evenodd;"
d="M 4238.94,39613.8
4250.4,39615.5
4261.65,39618.3
4272.56,39622.2
4283.04,39627.2
4292.98,39633.1
4302.29,39640
4310.88,39647.8
4318.66,39656.4
4325.57,39665.7
4331.53,39675.7
4336.48,39686.1
4340.39,39697.1
4343.2,39708.3
4344.9,39719.8
4345.47,39731.3
4345.47,39967.6
4344.9,39979.1
4343.2,39990.6
4340.39,40001.9
4336.48,40012.8
4331.53,40023.2
4325.57,40033.2
4318.66,40042.5
4310.88,40051.1
4302.29,40058.9
4292.98,40065.8
4283.04,40071.7
4272.56,40076.7
4261.65,40080.6
4250.4,40083.4
4238.94,40085.1
4227.36,40085.7
3695.87,40085.7
3684.29,40085.1
3672.82,40083.4
3661.58,40080.6
3650.67,40076.7
3640.19,40071.7
3630.25,40065.8
3620.94,40058.9
3612.35,40051.1
3604.57,40042.5
3597.66,40033.2
3591.7,40023.2
3586.75,40012.8
3582.84,40001.9
3580.03,39990.6
3578.32,39979.1
3577.76,39967.6
3577.76,39731.3
3578.32,39719.8
3580.03,39708.3
3582.84,39697.1
3586.75,39686.1
3591.7,39675.7
3597.66,39665.7
3604.57,39656.4
3612.35,39647.8
3620.94,39640
3630.25,39633.1
3640.19,39627.2
3650.67,39622.2
3661.58,39618.3
3672.82,39615.5
3684.29,39613.8
3695.87,39613.2
4227.36,39613.2
Z" /> 
<path style="fill:#000000; fill-opacity:1.0; 
stroke:#000000; stroke-width:0; stroke-opacity:1; 
stroke-linecap:round; stroke-linejoin:round;fill-rule:evenodd;"
d="M 4238.94,39113.8
4250.4,39115.5
4261.65,39118.3
4272.56,39122.2
4283.04,39127.2
4292.98,39133.1
4302.29,39140
4310.88,39147.8
4318.66,39156.4
4325.57,39165.7
4331.53,39175.7
4336.48,39186.1
4340.39,39197.1
4343.2,39208.3
4344.9,39219.8
4345.47,39231.3
4345.47,39467.6
4344.9,39479.1
4343.2,39490.6
4340.39,39501.9
4336.48,39512.8
4331.53,39523.2
4325.57,39533.2
4318.66,39542.5
4310.88,39551.1
4302.29,39558.9
4292.98,39565.8
4283.04,39571.7
4272.56,39576.7
4261.65,39580.6
4250.4,39583.4
4238.94,39585.1
4227.36,39585.7
3695.87,39585.7
3684.29,39585.1
3672.82,39583.4
3661.58,39580.6
3650.67,39576.7
3640.19,39571.7
3630.25,39565.8
3620.94,39558.9
3612.35,39551.1
3604.57,39542.5
3597.66,39533.2
3591.7,39523.2
3586.75,39512.8
3582.84,39501.9
3580.03,39490.6
3578.32,39479.1
3577.76,39467.6
3577.76,39231.3
3578.32,39219.8
3580.03,39208.3
3582.84,39197.1
3586.75,39186.1
3591.7,39175.7
3597.66,39165.7
3604.57,39156.4
3612.35,39147.8
3620.94,39140
3630.25,39133.1
3640.19,39127.2
3650.67,39122.2
3661.58,39118.3
3672.82,39115.5
3684.29,39113.8
3695.87,39113.2
4227.36,39113.2
Z" /> 
<path style="fill:#000000; fill-opacity:1.0; 
stroke:#000000; stroke-width:0; stroke-opacity:1; 
stroke-linecap:round; stroke-linejoin:round;fill-rule:evenodd;"
d="M 4238.94,38613.8
4250.4,38615.5
4261.65,38618.3
4272.56,38622.2
4283.04,38627.2
4292.98,38633.1
4302.29,38640
4310.88,38647.8
4318.66,38656.4
4325.57,38665.7
4331.53,38675.7
4336.48,38686.1
4340.39,38697.1
4343.2,38708.3
4344.9,38719.8
4345.47,38731.3
4345.47,38967.6
4344.9,38979.1
4343.2,38990.6
4340.39,39001.9
4336.48,39012.8
4331.53,39023.2
4325.57,39033.2
4318.66,39042.5
4310.88,39051.1
4302.29,39058.9
4292.98,39065.8
4283.04,39071.7
4272.56,39076.7
4261.65,39080.6
4250.4,39083.4
4238.94,39085.1
4227.36,39085.7
3695.87,39085.7
3684.29,39085.1
3672.82,39083.4
3661.58,39080.6
3650.67,39076.7
3640.19,39071.7
3630.25,39065.8
3620.94,39058.9
3612.35,39051.1
3604.57,39042.5
3597.66,39033.2
3591.7,39023.2
3586.75,39012.8
3582.84,39001.9
3580.03,38990.6
3578.32,38979.1
3577.76,38967.6
3577.76,38731.3
3578.32,38719.8
3580.03,38708.3
3582.84,38697.1
3586.75,38686.1
3591.7,38675.7
3597.66,38665.7
3604.57,38656.4
3612.35,38647.8
3620.94,38640
3630.25,38633.1
3640.19,38627.2
3650.67,38622.2
3661.58,38618.3
3672.82,38615.5
3684.29,38613.8
3695.87,38613.2
4227.36,38613.2
Z" /> 
</g>
<g >
</g>
<g style="fill:#000000; fill-opacity:1.0; 
stroke:#000000; stroke-width:0; stroke-opacity:1; 
stroke-linecap:round; stroke-linejoin:round;">
<path style="fill:#000000; fill-opacity:1.0; 
stroke:#000000; stroke-width:0; stroke-opacity:1; 
stroke-linecap:round; stroke-linejoin:round;fill-rule:evenodd;"
d="M 4621.06,1524.65
5290.35,1524.65
5290.35,2705.76
4621.06,2705.76
Z" /> 
</g>
<g >
</g>
<g >
</g>
<g style="fill:#000000; fill-opacity:1.0; 
stroke:#000000; stroke-width:0; stroke-opacity:1; 
stroke-linecap:round; stroke-linejoin:round;">
</g>
<g style="fill:#000000; fill-opacity:1.0; 
stroke:#000000; stroke-width:275.591; stroke-opacity:1; 
stroke-linecap:round; stroke-linejoin:round;">
</g>
<g style="fill:#000000; fill-opacity:0.0; 
stroke:#000000; stroke-width:275.591; stroke-opacity:1; 
stroke-linecap:round; stroke-linejoin:round;">
<path d="M4857 33512
L5203 33166
" />
<path d="M4857 37059
L4857 33512
" />
<path d="M5203 6358
L3799 4953
" />
<path d="M4317 37599
L4857 37059
" />
<path d="M3961 39349
L3577 39349
" />
<path d="M3799 4953
L3085 4953
" />
<path d="M3577 39349
L3436 39207
" />
<path d="M3436 38083
L3920 37599
" />
<path d="M3920 37599
L4317 37599
" />
<path d="M3436 39207
L3436 38083
" />
<path d="M5203 33166
L5203 6358
" />
<path d="M2790 47292
L2617 47465
" />
<path d="M4294 36831
L4294 32280
" />
<path d="M4085 37040
L4294 36831
" />
<path d="M2817 40036
L2817 37619
" />
<path d="M3874 47292
L2790 47292
" />
<path d="M2817 37619
L3396 37040
" />
<path d="M2534 60107
L2534 61052
" />
<path d="M1778 42583
L1778 59725
" />
<path d="M1845 59792
L2396 59792
" />
<path d="M3701 44457
L4294 45050
" />
<path d="M2977 30963
L2977 30018
" />
<path d="M4294 32280
L2977 30963
" />
<path d="M2396 59792
L2396 60914
" />
<path d="M4294 46872
L3874 47292
" />
<path d="M3233 40451
L2817 40036
" />
<path d="M4294 45050
L4294 46872
" />
<path d="M2012 42349
L1778 42583
" />
<path d="M3396 37040
L4085 37040
" />
<path d="M2396 60914
L2534 61052
" />
<path d="M2977 30018
L2750 29792
" />
<path d="M3695 44457
L3701 44457
" />
<path d="M2750 30737
L2750 29792
" />
<path d="M1778 59725
L1845 59792
" />
<path d="M2977 30963
L2750 30737
" />
<path d="M2538 42229
L2538 43300
" />
<path d="M2538 43300
L3695 44457
" />
<path d="M2617 52040
L2790 52213
" />
<path d="M2790 52213
L3821 52213
" />
<path d="M3335 40349
L3233 40451
" />
<path d="M3961 40349
L3335 40349
" />
<path d="M2535 41149
L2538 41151
" />
<path d="M2538 41151
L2538 42229
" />
<path d="M2538 42229
L2418 42349
" />
<path d="M2418 42349
L2012 42349
" />
<path d="M3821 52213
L3971 52064
" />
<path d="M3233 40451
L2535 41149
" />
<path d="M2617 47465
L2617 52040
" />
<path d="M1434 38849
L2012 38849
" />
<path d="M2215 14993
L936 16272
" />
<path d="M936 16272
L936 38351
" />
<path d="M3085 14993
L2215 14993
" />
<path d="M936 38351
L1434 38849
" />
<path d="M2767 14993
L3085 14993
" />
<path d="M2012 39349
L949 39349
" />
<path d="M1821 17256
L1514 17564
" />
<path d="M656 14682
L1215 14123
" />
<path d="M949 39349
L656 39056
" />
<path d="M656 39056
L656 14682
" />
<path d="M1514 24658
L1888 25032
" />
<path d="M1215 14123
L4168 14123
" />
<path d="M4168 14123
L4365 14319
" />
<path d="M4365 14319
L4365 17075
" />
<path d="M4365 17075
L4184 17256
" />
<path d="M4184 17256
L1821 17256
" />
<path d="M1514 17564
L1514 24658
" />
<path d="M1888 25032
L3105 25032
" />
<path d="M2577 25032
L3105 25032
" />
<path d="M2888 24815
L3105 25032
" />
<path d="M3085 35071
L3403 35071
" />
<path d="M4014 35682
L4014 36697
" />
<path d="M2402 39849
L2012 39849
" />
<path d="M3950 36760
L3270 36760
" />
<path d="M4014 36697
L3950 36760
" />
<path d="M3403 35071
L4014 35682
" />
<path d="M3270 36760
L2538 37493
" />
<path d="M2538 37493
L2538 39713
" />
<path d="M2538 39713
L2402 39849
" />
<path d="M2012 39849
L2236 39849
" />
<path d="M4853 60977
L4857 60973
" />
<path d="M4014 46736
L4014 45722
" />
<path d="M4857 55653
L3484 54280
" />
<path d="M648 76532
L1837 77721
" />
<path d="M3986 46785
L3986 46764
" />
<path d="M4014 45722
L3403 45111
" />
<path d="M2337 54123
L2337 47056
" />
<path d="M3403 45111
L3085 45111
" />
<path d="M1837 77721
L4333 77721
" />
<path d="M3484 54280
L2495 54280
" />
<path d="M2337 47056
L2396 46997
" />
<path d="M2012 40349
L898 40349
" />
<path d="M648 40599
L648 76532
" />
<path d="M2495 54280
L2337 54123
" />
<path d="M4853 77201
L4853 60977
" />
<path d="M2396 46997
L3774 46997
" />
<path d="M3986 46764
L4014 46736
" />
<path d="M4857 60973
L4857 55653
" />
<path d="M898 40349
L648 40599
" />
<path d="M4333 77721
L4853 77201
" />
<path d="M3774 46997
L3986 46785
" />
<path d="M4217 77441
L4573 77086
" />
<path d="M4573 56320
L3403 55150
" />
<path d="M928 40993
L928 76416
" />
<path d="M1953 77441
L4217 77441
" />
<path d="M3403 55150
L3085 55150
" />
<path d="M1071 40849
L928 40993
" />
<path d="M2012 40849
L1071 40849
" />
<path d="M928 76416
L1953 77441
" />
<path d="M4573 77086
L4573 56320
" />
<path d="M4102 77162
L4294 76970
" />
<path d="M2069 77162
L4102 77162
" />
<path d="M1207 76301
L2069 77162
" />
<path d="M4294 76970
L4294 75567
" />
<path d="M4128 75402
L4128 65915
" />
<path d="M1207 41493
L1207 76301
" />
<path d="M4294 75567
L4128 75402
" />
<path d="M1351 41349
L1207 41493
" />
<path d="M3403 65190
L3085 65190
" />
<path d="M4128 65915
L3403 65190
" />
<path d="M2012 41349
L1351 41349
" />
<path d="M1516 41849
L1487 41878
" />
<path d="M1487 41878
L1487 76185
" />
<path d="M3986 76882
L4014 76854
" />
<path d="M2184 76882
L3986 76882
" />
<path d="M3403 75229
L3085 75229
" />
<path d="M4014 75840
L3403 75229
" />
<path d="M2012 41849
L1516 41849
" />
<path d="M1487 76185
L2184 76882
" />
<path d="M4014 76854
L4014 75840
" />
<path d="M3380 42951
L5132 44703
" />
<path d="M5132 44703
L5132 47902
" />
<path d="M3380 41878
L3380 42951
" />
<path d="M4345 41849
L3961 41849
" />
<path d="M4857 39319
L4857 41337
" />
<path d="M4857 41337
L4345 41849
" />
<path d="M5132 47902
L3971 49064
" />
<path d="M3912 41878
L3708 41878
" />
<path d="M3961 41849
L3941 41849
" />
<path d="M3941 41849
L3912 41878
" />
<path d="M4386 38849
L4857 39319
" />
<path d="M3961 38849
L4386 38849
" />
<path d="M3708 41878
L3380 41878
" />
<path d="M3380 41878
L3376 41882
" />
<path d="M3974 47587
L2987 47587
" />
<path d="M2817 42835
L2817 42835
" />
<path d="M2817 42300
L2817 42300
" />
<path d="M3117 51064
L3971 51064
" />
<path d="M2987 47587
L2896 47678
" />
<path d="M2817 41262
L2817 42300
" />
<path d="M2896 47678
L2896 50843
" />
<path d="M4573 46988
L3974 47587
" />
<path d="M4573 44935
L4573 46988
" />
<path d="M2817 43179
L4573 44935
" />
<path d="M2817 42835
L2817 43179
" />
<path d="M3961 40849
L3230 40849
" />
<path d="M2817 42300
L2817 42835
" />
<path d="M2896 50843
L3117 51064
" />
<path d="M3230 40849
L2817 41262
" />
<path d="M5526 79853
L5691 79688
" />
<path d="M5691 2556
L4955 1819
" />
<path d="M5691 79688
L5691 2556
" />
<path d="M4457 79865
L5500 79865
" />
<path d="M5500 79865
L5526 79853
" />
<path d="M1609 5166
L1609 4556
" />
<path d="M1609 4556
L4345 1819
" />
<path d="M4345 1819
L4955 1819
" />
<path d="M1813 5371
L1609 5166
" />
<path d="M4573 36947
L4573 17657
" />
<path d="M4924 17307
L4924 6474
" />
<path d="M4573 17657
L4924 17307
" />
<path d="M3961 39849
L3577 39849
" />
<path d="M4924 6474
L3821 5371
" />
<path d="M3821 5371
L1813 5371
" />
<path d="M3156 37871
L3707 37319
" />
<path d="M3707 37319
L4201 37319
" />
<path d="M3961 39849
L4185 39849
" />
<path d="M3577 39849
L3156 39428
" />
<path d="M3156 39428
L3156 37871
" />
<path d="M1215 79378
L3971 79378
" />
<path d="M3971 79378
L4457 79865
" />
<path d="M4201 37319
L4573 36947
" />
<path d="M3126 41349
L3097 41378
" />
<path d="M3176 49843
L3380 50048
" />
<path d="M4853 44819
L4853 47104
" />
<path d="M3955 50048
L3971 50064
" />
<path d="M3097 43063
L4853 44819
" />
<path d="M3961 41349
L3126 41349
" />
<path d="M3479 47882
L3176 48186
" />
<path d="M3097 41378
L3097 43063
" />
<path d="M4074 47882
L3479 47882
" />
<path d="M3380 50048
L3955 50048
" />
<path d="M3176 48186
L3176 49843
" />
<path d="M4853 47104
L4074 47882
" />
<path d="M3961 43136
L5412 44587
" />
<path d="M4380 79099
L3282 78001
" />
<path d="M369 76648
L369 8453
" />
<path d="M4676 79099
L4380 79099
" />
<path d="M3282 78001
L1721 78001
" />
<path d="M5412 78922
L4955 79378
" />
<path d="M1215 7607
L1215 1819
" />
<path d="M369 8453
L1215 7607
" />
<path d="M1721 78001
L369 76648
" />
<path d="M4955 79378
L4676 79099
" />
<path d="M3961 42349
L3961 43136
" />
<path d="M5412 44587
L5412 78922
" />
<path d="M2058 46154
L3042 46154
" />
<path d="M3243 60028
L3479 59792
" />
<path d="M3042 46154
L3085 46111
" />
<path d="M3479 59792
L3479 58217
" />
<path d="M2058 56796
L2058 46154
" />
<path d="M3479 58217
L2058 56796
" />
<path d="M3243 60107
L3243 60028
" />
<path d="M3798 60359
L3798 57926
" />
<path d="M2593 56721
L2593 56642
" />
<path d="M3798 57926
L2593 56721
" />
<path d="M3243 60422
L3735 60422
" />
<path d="M2593 56642
L3085 56150
" />
<path d="M3735 60422
L3798 60359
" />
<path d="M3798 60800
L3798 62819
" />
<path d="M2199 66190
L3085 66190
" />
<path d="M2046 64571
L2046 66036
" />
<path d="M3798 62819
L2046 64571
" />
<path d="M3243 60737
L3735 60737
" />
<path d="M2046 66036
L2199 66190
" />
<path d="M3735 60737
L3798 60800
" />
<path d="M3243 61130
L3479 61367
" />
<path d="M2298 76229
L3085 76229
" />
<path d="M3479 61367
L3479 62548
" />
<path d="M3479 62548
L1766 64260
" />
<path d="M1766 75697
L2298 76229
" />
<path d="M1766 64260
L1766 75697
" />
<path d="M3243 61052
L3243 61130
" />
<path d="M2042 29792
L2042 28649
" />
<path d="M4034 24127
L3479 23571
" />
<path d="M1794 17776
L2034 17536
" />
<path d="M4034 26657
L4034 24127
" />
<path d="M2042 28649
L4034 26657
" />
<path d="M4644 16501
L4644 6725
" />
<path d="M4644 6725
L3873 5953
" />
<path d="M3873 5953
L3085 5953
" />
<path d="M3479 23571
L2199 23571
" />
<path d="M4644 16699
L4644 16501
" />
<path d="M2034 17536
L4299 17536
" />
<path d="M2199 23571
L1794 23166
" />
<path d="M1794 23166
L1794 17776
" />
<path d="M4299 17536
L4644 17191
" />
<path d="M4644 17191
L4644 16501
" />
<path d="M2042 30422
L1451 30422
" />
<path d="M1215 30186
L1215 16682
" />
<path d="M1215 16682
L1904 15993
" />
<path d="M1451 30422
L1215 30186
" />
<path d="M1904 15993
L3085 15993
" />
<path d="M1534 30107
L1495 30067
" />
<path d="M1495 30067
L1495 26934
" />
<path d="M2042 30107
L1534 30107
" />
<path d="M2396 26032
L3105 26032
" />
<path d="M1495 26934
L2396 26032
" />
<path d="M3085 36071
L1707 36071
" />
<path d="M1707 36071
L1215 35579
" />
<path d="M1215 35579
L1215 30953
" />
<path d="M1215 30953
L1432 30737
" />
<path d="M1432 30737
L2042 30737
" />
</g>
<g >
</g>
</g>
<g style="fill:#FFFFFF; fill-opacity:0.0; 
stroke:#FFFFFF; stroke-width:275.591; stroke-opacity:1; 
stroke-linecap:round; stroke-linejoin:round;">
</g>
<g style="fill:#FFFFFF; fill-opacity:1.0; 
stroke:#FFFFFF; stroke-width:0; stroke-opacity:1; 
stroke-linecap:round; stroke-linejoin:round;">
<circle cx="4955.71" cy="79182.1" r="196.85" /> 
</g>
<g style="fill:#FFFFFF; fill-opacity:1.0; 
stroke:#FFFFFF; stroke-width:39.3701; stroke-opacity:1; 
stroke-linecap:round; stroke-linejoin:round;">
</g>
<g style="fill:#FFFFFF; fill-opacity:1.0; 
stroke:#FFFFFF; stroke-width:0; stroke-opacity:1; 
stroke-linecap:round; stroke-linejoin:round;">
<circle cx="1215.55" cy="79182.1" r="196.85" /> 
</g>
<g style="fill:#FFFFFF; fill-opacity:1.0; 
stroke:#FFFFFF; stroke-width:39.3701; stroke-opacity:1; 
stroke-linecap:round; stroke-linejoin:round;">
</g>
<g style="fill:#FFFFFF; fill-opacity:1.0; 
stroke:#FFFFFF; stroke-width:0; stroke-opacity:1; 
stroke-linecap:round; stroke-linejoin:round;">
<circle cx="3085.63" cy="45111.3" r="196.85" /> 
</g>
<g style="fill:#FFFFFF; fill-opacity:1.0; 
stroke:#FFFFFF; stroke-width:39.3701; stroke-opacity:1; 
stroke-linecap:round; stroke-linejoin:round;">
</g>
<g style="fill:#FFFFFF; fill-opacity:1.0; 
stroke:#FFFFFF; stroke-width:0; stroke-opacity:1; 
stroke-linecap:round; stroke-linejoin:round;">
<circle cx="3085.63" cy="46111.3" r="196.85" /> 
</g>
<g style="fill:#FFFFFF; fill-opacity:1.0; 
stroke:#FFFFFF; stroke-width:39.3701; stroke-opacity:1; 
stroke-linecap:round; stroke-linejoin:round;">
</g>
<g style="fill:#FFFFFF; fill-opacity:1.0; 
stroke:#FFFFFF; stroke-width:0; stroke-opacity:1; 
stroke-linecap:round; stroke-linejoin:round;">
<circle cx="3085.63" cy="35071.9" r="196.85" /> 
</g>
<g style="fill:#FFFFFF; fill-opacity:1.0; 
stroke:#FFFFFF; stroke-width:39.3701; stroke-opacity:1; 
stroke-linecap:round; stroke-linejoin:round;">
</g>
<g style="fill:#FFFFFF; fill-opacity:1.0; 
stroke:#FFFFFF; stroke-width:0; stroke-opacity:1; 
stroke-linecap:round; stroke-linejoin:round;">
<circle cx="3085.63" cy="36071.9" r="196.85" /> 
</g>
<g style="fill:#FFFFFF; fill-opacity:1.0; 
stroke:#FFFFFF; stroke-width:39.3701; stroke-opacity:1; 
stroke-linecap:round; stroke-linejoin:round;">
</g>
<g style="fill:#FFFFFF; fill-opacity:1.0; 
stroke:#FFFFFF; stroke-width:0; stroke-opacity:1; 
stroke-linecap:round; stroke-linejoin:round;">
<circle cx="3105.31" cy="25032.5" r="196.85" /> 
</g>
<g style="fill:#FFFFFF; fill-opacity:1.0; 
stroke:#FFFFFF; stroke-width:39.3701; stroke-opacity:1; 
stroke-linecap:round; stroke-linejoin:round;">
</g>
<g style="fill:#FFFFFF; fill-opacity:1.0; 
stroke:#FFFFFF; stroke-width:0; stroke-opacity:1; 
stroke-linecap:round; stroke-linejoin:round;">
<circle cx="3105.31" cy="26032.5" r="196.85" /> 
</g>
<g style="fill:#FFFFFF; fill-opacity:1.0; 
stroke:#FFFFFF; stroke-width:39.3701; stroke-opacity:1; 
stroke-linecap:round; stroke-linejoin:round;">
</g>
<g style="fill:#FFFFFF; fill-opacity:1.0; 
stroke:#FFFFFF; stroke-width:0; stroke-opacity:1; 
stroke-linecap:round; stroke-linejoin:round;">
<circle cx="3085.63" cy="4953.79" r="196.85" /> 
</g>
<g style="fill:#FFFFFF; fill-opacity:1.0; 
stroke:#FFFFFF; stroke-width:39.3701; stroke-opacity:1; 
stroke-linecap:round; stroke-linejoin:round;">
</g>
<g style="fill:#FFFFFF; fill-opacity:1.0; 
stroke:#FFFFFF; stroke-width:0; stroke-opacity:1; 
stroke-linecap:round; stroke-linejoin:round;">
<circle cx="3085.63" cy="5953.79" r="196.85" /> 
</g>
<g style="fill:#FFFFFF; fill-opacity:1.0; 
stroke:#FFFFFF; stroke-width:39.3701; stroke-opacity:1; 
stroke-linecap:round; stroke-linejoin:round;">
</g>
<g style="fill:#FFFFFF; fill-opacity:1.0; 
stroke:#FFFFFF; stroke-width:0; stroke-opacity:1; 
stroke-linecap:round; stroke-linejoin:round;">
<circle cx="3085.63" cy="55150.6" r="196.85" /> 
</g>
<g style="fill:#FFFFFF; fill-opacity:1.0; 
stroke:#FFFFFF; stroke-width:39.3701; stroke-opacity:1; 
stroke-linecap:round; stroke-linejoin:round;">
</g>
<g style="fill:#FFFFFF; fill-opacity:1.0; 
stroke:#FFFFFF; stroke-width:0; stroke-opacity:1; 
stroke-linecap:round; stroke-linejoin:round;">
<circle cx="3085.63" cy="56150.6" r="196.85" /> 
</g>
<g style="fill:#FFFFFF; fill-opacity:1.0; 
stroke:#FFFFFF; stroke-width:39.3701; stroke-opacity:1; 
stroke-linecap:round; stroke-linejoin:round;">
</g>
<g style="fill:#FFFFFF; fill-opacity:1.0; 
stroke:#FFFFFF; stroke-width:0; stroke-opacity:1; 
stroke-linecap:round; stroke-linejoin:round;">
<circle cx="3971.46" cy="52064" r="196.85" /> 
</g>
<g style="fill:#FFFFFF; fill-opacity:1.0; 
stroke:#FFFFFF; stroke-width:39.3701; stroke-opacity:1; 
stroke-linecap:round; stroke-linejoin:round;">
</g>
<g style="fill:#FFFFFF; fill-opacity:1.0; 
stroke:#FFFFFF; stroke-width:0; stroke-opacity:1; 
stroke-linecap:round; stroke-linejoin:round;">
<circle cx="3971.46" cy="51064" r="196.85" /> 
</g>
<g style="fill:#FFFFFF; fill-opacity:1.0; 
stroke:#FFFFFF; stroke-width:39.3701; stroke-opacity:1; 
stroke-linecap:round; stroke-linejoin:round;">
</g>
<g style="fill:#FFFFFF; fill-opacity:1.0; 
stroke:#FFFFFF; stroke-width:0; stroke-opacity:1; 
stroke-linecap:round; stroke-linejoin:round;">
<circle cx="3971.46" cy="50064" r="196.85" /> 
</g>
<g style="fill:#FFFFFF; fill-opacity:1.0; 
stroke:#FFFFFF; stroke-width:39.3701; stroke-opacity:1; 
stroke-linecap:round; stroke-linejoin:round;">
</g>
<g style="fill:#FFFFFF; fill-opacity:1.0; 
stroke:#FFFFFF; stroke-width:0; stroke-opacity:1; 
stroke-linecap:round; stroke-linejoin:round;">
<circle cx="3971.46" cy="49064" r="196.85" /> 
</g>
<g style="fill:#FFFFFF; fill-opacity:1.0; 
stroke:#FFFFFF; stroke-width:39.3701; stroke-opacity:1; 
stroke-linecap:round; stroke-linejoin:round;">
</g>
<g style="fill:#FFFFFF; fill-opacity:1.0; 
stroke:#FFFFFF; stroke-width:0; stroke-opacity:1; 
stroke-linecap:round; stroke-linejoin:round;">
<circle cx="3085.63" cy="75229.4" r="196.85" /> 
</g>
<g style="fill:#FFFFFF; fill-opacity:1.0; 
stroke:#FFFFFF; stroke-width:39.3701; stroke-opacity:1; 
stroke-linecap:round; stroke-linejoin:round;">
</g>
<g style="fill:#FFFFFF; fill-opacity:1.0; 
stroke:#FFFFFF; stroke-width:0; stroke-opacity:1; 
stroke-linecap:round; stroke-linejoin:round;">
<circle cx="3085.63" cy="76229.4" r="196.85" /> 
</g>
<g style="fill:#FFFFFF; fill-opacity:1.0; 
stroke:#FFFFFF; stroke-width:39.3701; stroke-opacity:1; 
stroke-linecap:round; stroke-linejoin:round;">
</g>
<g style="fill:#FFFFFF; fill-opacity:1.0; 
stroke:#FFFFFF; stroke-width:0; stroke-opacity:1; 
stroke-linecap:round; stroke-linejoin:round;">
<circle cx="3085.63" cy="65190" r="196.85" /> 
</g>
<g style="fill:#FFFFFF; fill-opacity:1.0; 
stroke:#FFFFFF; stroke-width:39.3701; stroke-opacity:1; 
stroke-linecap:round; stroke-linejoin:round;">
</g>
<g style="fill:#FFFFFF; fill-opacity:1.0; 
stroke:#FFFFFF; stroke-width:0; stroke-opacity:1; 
stroke-linecap:round; stroke-linejoin:round;">
<circle cx="3085.63" cy="66190" r="196.85" /> 
</g>
<g style="fill:#FFFFFF; fill-opacity:1.0; 
stroke:#FFFFFF; stroke-width:39.3701; stroke-opacity:1; 
stroke-linecap:round; stroke-linejoin:round;">
</g>
<g style="fill:#FFFFFF; fill-opacity:1.0; 
stroke:#FFFFFF; stroke-width:0; stroke-opacity:1; 
stroke-linecap:round; stroke-linejoin:round;">
<circle cx="3085.63" cy="14993.2" r="196.85" /> 
</g>
<g style="fill:#FFFFFF; fill-opacity:1.0; 
stroke:#FFFFFF; stroke-width:39.3701; stroke-opacity:1; 
stroke-linecap:round; stroke-linejoin:round;">
</g>
<g style="fill:#FFFFFF; fill-opacity:1.0; 
stroke:#FFFFFF; stroke-width:0; stroke-opacity:1; 
stroke-linecap:round; stroke-linejoin:round;">
<circle cx="3085.63" cy="15993.2" r="196.85" /> 
</g>
<g style="fill:#FFFFFF; fill-opacity:1.0; 
stroke:#FFFFFF; stroke-width:39.3701; stroke-opacity:1; 
stroke-linecap:round; stroke-linejoin:round;">
</g>
<g style="fill:#FFFFFF; fill-opacity:1.0; 
stroke:#FFFFFF; stroke-width:0; stroke-opacity:1; 
stroke-linecap:round; stroke-linejoin:round;">
<circle cx="1215.55" cy="2016.78" r="196.85" /> 
</g>
<g style="fill:#FFFFFF; fill-opacity:1.0; 
stroke:#FFFFFF; stroke-width:39.3701; stroke-opacity:1; 
stroke-linecap:round; stroke-linejoin:round;">
</g>
<g style="fill:#FFFFFF; fill-opacity:1.0; 
stroke:#FFFFFF; stroke-width:0; stroke-opacity:1; 
stroke-linecap:round; stroke-linejoin:round;">
<circle cx="4955.71" cy="2016.78" r="196.85" /> 
</g>
<g style="fill:#FFFFFF; fill-opacity:1.0; 
stroke:#FFFFFF; stroke-width:39.3701; stroke-opacity:1; 
stroke-linecap:round; stroke-linejoin:round;">
</g>
<g style="fill:#000000; fill-opacity:1.0; 
stroke:#000000; stroke-width:39.3701; stroke-opacity:1; 
stroke-linecap:round; stroke-linejoin:round;">
</g>
<g style="fill:#000000; fill-opacity:0.0; 
stroke:#000000; stroke-width:19.685; stroke-opacity:1; 
stroke-linecap:round; stroke-linejoin:round;">
<circle cx="3085.63" cy="12843.6" r="393.701" /> 
<path d="M920 80067
L5250 80067
" />
<path d="M920.276 1130.95 A787.402 787.402 0.0 0 0 132.874 1918.35" />
<path d="M132 1918
L132 79280
" />
<path d="M5250 1130
L920 1130
" />
<path d="M5250.98 80068 A787.402 787.402 0.0 0 0 6038.39 79280.6" />
<circle cx="3085.63" cy="32922.3" r="393.701" /> 
<path d="M6038.39 1918.35 A787.402 787.402 0.0 0 0 5250.98 1130.95" />
<path d="M6038 79280
L6038 1918
" />
<path d="M132.874 79280.6 A787.402 787.402 0.0 0 0 920.276 80068" />
<circle cx="3085.63" cy="68355.4" r="393.701" /> 
<g >
</g>
<g >
</g>
<g >
</g>
<g >
</g>
<g >
</g>
<g >
</g>
<g >
</g>
<g >
</g>
<g >
</g>
<g >
</g>
<g >
</g>
<g >
</g>
<g >
</g>
<g >
</g>
<g >
</g>
<g >
</g>
<g >
</g>
</g> 
</svg>
